<?xml version="1.0" encoding="utf-8"?>
<!-- Generator: Adobe Illustrator 16.0.4, SVG Export Plug-In . SVG Version: 6.00 Build 0)  -->
<!DOCTYPE svg PUBLIC "-//W3C//DTD SVG 1.1//EN" "http://www.w3.org/Graphics/SVG/1.1/DTD/svg11.dtd">
<svg version="1.1" id="Layer_1" xmlns="http://www.w3.org/2000/svg" xmlns:xlink="http://www.w3.org/1999/xlink" x="0px" y="0px"
	 width="210px" height="65px" viewBox="104.5 39 210 65" enable-background="new 104.5 39 210 65" xml:space="preserve">
<g>
	<circle fill="#FFFFFF" cx="135.332" cy="71.842" r="28.765"/>
	<path fill="#B4975A" d="M301.885,83.295c-2.02-0.748-2.48-1.104-3.061-2.385L284.717,52.85h-5.845L263.098,81.45
		c-0.57,1.079-1.088,1.333-2.408,1.801l-3.584,1.092v4.183h17.496v-4.281l-3.885-1.01c-0.833-0.205-0.795-0.758-0.6-1.131
		c0,0,0.508-0.968,1.273-2.424h14.65c0.777,1.467,0.984,1.764,1.236,2.295c0.371,0.781-0.352,1.131-1.268,1.39l-3.505,0.972v4.189
		h22.47v-4.112C304.975,84.412,301.891,83.296,301.885,83.295z M273.175,76.273c2.291-4.364,5.511-10.588,5.739-11.045
		c0.223,0.526,3.166,6.605,5.324,11.045H273.175z"/>
	<path fill="#B4975A" d="M256.544,75.207l3.478-1.021v-4.36h-22.598v4.36l3.479,1.021c2.47,0.758,2.564,1.038,2.564,3.014v5.938
		c-1.246,0.242-3.604,0.269-5.128,0.045c-8.169-1.192-10.422-7.212-10.422-13.521c0-3.545,1.192-6.767,3.901-9.383
		c1.931-1.867,4.891-3.564,9.388-3.402c1.961,0.072,4.214,1.008,4.992,1.552c2.237,1.557,2.763,3.394,3.354,5.651h5.789
		l-0.025-8.883c0,0-5.838-3.998-15.926-3.998c-8.014,0-23.771,3.336-23.771,19.004c0,9.611,8.078,17.118,22.128,17.834
		c9.678,0.489,16.239-2.367,16.239-2.367l-0.006-8.469C253.98,76.245,254.074,75.965,256.544,75.207z"/>
	<path fill="#B4975A" d="M200.652,53.133c-1.687-0.182-6.565-0.23-6.565-0.23l-19.873,0.006v4.346l3.333,1.03
		c2.706,0.873,2.706,1.13,2.706,3.12l0.017,18.835c0,1.995,0,2.112-2.711,2.973l-3.326,0.953v4.374h22.697v-4.374l-3.326-0.953
		c-2.713-0.858-2.713-0.978-2.713-2.973l0.012-4.495c0.348,0,5.373,0,5.373,0c4.943-0.076,8.942-0.393,12.514-2.413
		c3.404-1.927,5.268-5.494,5.268-9.224C214.055,58.088,209.296,54.014,200.652,53.133z M201.494,68.896
		c-0.633,0.578-2.055,1.281-3.215,1.572c-3.165,0.803-7.23,0.489-7.377,0.489V57.531c2.682,0,7.367-0.404,10.377,1.761
		c1.484,1.069,2.354,2.765,2.398,4.951C203.712,65.786,203.145,67.482,201.494,68.896z"/>
	<path fill="#B4975A" d="M135.693,41.307c-16.647,0-30.193,13.543-30.193,30.191s13.546,30.195,30.193,30.195
		c16.65,0,30.193-13.547,30.193-30.195S152.344,41.307,135.693,41.307z"/>
	<path fill="#00234B" d="M135.68,44.07c-15.15,0-27.476,12.326-27.476,27.478c0,15.15,12.325,27.476,27.476,27.476
		c15.152,0,27.475-12.324,27.475-27.476S150.832,44.07,135.68,44.07z"/>
	<path fill="#B4975A" d="M135.693,91.697c11.065,0,20.07-9.006,20.07-20.072c0-11.068-9.005-20.07-20.07-20.07
		s-20.071,9.002-20.071,20.07C115.622,82.691,124.627,91.697,135.693,91.697z"/>
	<path fill="#00234B" d="M135.572,52.988c-2.074,0-3.762,1.688-3.762,3.761c0,2.075,1.688,3.761,3.762,3.761
		s3.763-1.686,3.763-3.761C139.335,54.676,137.646,52.988,135.572,52.988z M133.734,58.5c-0.235,0.001-0.411-0.175-0.521-0.333
		c-0.123-0.183-0.202-0.401-0.197-0.663v-0.013c0.346,0.192,0.75,0.329,1.19,0.427C134.184,58.219,134.033,58.497,133.734,58.5z
		 M136.294,58.673c-0.174,0.162-0.407,0.274-0.724,0.274c-0.312,0-0.551-0.112-0.721-0.274c-0.177-0.159-0.302-0.384-0.306-0.681
		c0-0.008,0-0.014,0.005-0.014c0.617,0.104,1.441,0.096,2.051,0.006C136.596,58.289,136.469,58.514,136.294,58.673z M137.947,58.152
		c-0.111,0.164-0.272,0.33-0.508,0.348c-0.117,0.008-0.232-0.039-0.311-0.111c-0.115-0.106-0.173-0.264-0.195-0.471
		c0.444-0.093,0.846-0.229,1.19-0.424c0.004,0,0.005,0.003,0.005,0.006C138.137,57.732,138.07,57.973,137.947,58.152z
		 M138.133,57.482c-0.01-0.168-0.054-0.301-0.137-0.412c-0.078-0.104-0.188-0.194-0.352-0.196c-0.267-0.004-0.436,0.183-0.541,0.353
		c-0.123,0.193-0.188,0.428-0.174,0.691c-0.106,0.02-0.225,0.05-0.33,0.059c-0.009-0.302-0.132-0.524-0.306-0.688
		c-0.172-0.158-0.41-0.271-0.724-0.271c-0.312,0-0.543,0.115-0.719,0.271c-0.179,0.16-0.297,0.386-0.312,0.688
		c-0.114-0.016-0.226-0.035-0.329-0.062c0.014-0.451-0.159-0.802-0.449-0.97c-0.174-0.102-0.396-0.084-0.531,0.033
		c-0.129,0.108-0.203,0.281-0.215,0.5c-0.017,0.006-0.465-0.388-0.572-0.528c0,0-0.002-0.001-0.002-0.003
		c-0.004-0.065-0.008-0.131-0.008-0.198c0-1.729,1.408-3.138,3.137-3.138c1.731,0,3.139,1.408,3.139,3.138
		c0,0.051,0,0.099-0.002,0.149C138.633,57.02,138.471,57.254,138.133,57.482z M135.546,55.238c-0.288,0.021-0.519,0.129-0.682,0.291
		c-0.154,0.154-0.257,0.369-0.281,0.617c0.623,0.068,1.36,0.061,1.978,0.006c-0.027-0.276-0.136-0.49-0.311-0.651
		C136.104,55.369,135.833,55.221,135.546,55.238z M133.895,55.264c-0.19-0.056-0.377,0.047-0.478,0.139
		c-0.135,0.123-0.231,0.305-0.278,0.49c0.348,0.104,0.723,0.18,1.131,0.224C134.323,55.74,134.199,55.354,133.895,55.264z
		 M137.335,55.247c-0.358,0.028-0.522,0.452-0.457,0.868c0.407-0.045,0.785-0.117,1.13-0.223c-0.035-0.152-0.104-0.293-0.195-0.408
		C137.709,55.363,137.552,55.229,137.335,55.247z"/>
	<path fill="#00234B" d="M131.758,65.873l-5.898-8.646c0,0-0.633-0.074-1.18,0.287c-0.561,0.37-0.701,0.981-0.701,0.981l6.328,8.267
		C130.749,66.414,131.234,66.115,131.758,65.873z M141.374,66.393l6.083-7.896c0,0-0.141-0.611-0.701-0.98
		c-0.548-0.361-1.181-0.287-1.181-0.287l-5.742,8.402c0.869,0.321,1.379,0.653,1.479,0.723L141.374,66.393z M127.744,83.289
		c-0.251-0.133-0.67-0.295-1.396-0.455c-0.842-0.156-1.084-0.154-1.479-0.111c-1.287,0.104-2.053,0.732-2.086,0.76l-0.147,0.123
		l0.046,0.188c0.125,0.521,0.479,1.751,1.092,1.91c0.062,0.014,1.216,0.246,2.117,0.267c1.438,0.027,1.941-0.259,1.996-0.289
		l0.059-0.037l4.963-7.916c-0.273-0.084-0.537-0.176-0.791-0.278C130.873,79.15,127.982,82.957,127.744,83.289z M148.641,83.482
		c-0.033-0.027-0.8-0.655-2.086-0.76c-0.393-0.043-0.637-0.046-1.478,0.11c-0.728,0.16-1.146,0.321-1.397,0.455
		c-0.224-0.312-2.797-3.702-4.137-5.521c-0.26,0.068-0.555,0.135-0.878,0.194l4.815,7.681l0.058,0.037
		c0.054,0.029,0.558,0.315,1.997,0.287c0.9-0.02,2.054-0.252,2.117-0.266c0.611-0.159,0.966-1.391,1.091-1.91l0.045-0.188
		L148.641,83.482z"/>
	<path fill="#00234B" d="M136.684,65.001c0.451-1.615,1.279-2.915,1.279-2.915v-0.812c-2.527,0.181-4.779,0-4.779,0v0.812
		c0,0,0.805,1.333,1.254,3.014c0.531-0.076,1.07-0.117,1.608-0.117C136.266,64.982,136.477,64.99,136.684,65.001z"/>
	<path fill="#00234B" d="M131.891,87.926v-2.662h-0.293l-1.215,0.738v0.407l0.616-0.341c-0.003,0.002,0.009,0,0.022-0.002
		c0,0.004,0,1.867,0,1.867c0,0.258,0,0.258-0.289,0.349l-0.334,0.102v0.306l0.219-0.01l0.725-0.016l1.197,0.021l0.006-0.303
		l-0.425-0.124C131.904,88.195,131.891,88.189,131.891,87.926z"/>
	<path fill="#00234B" d="M137.369,87.926v-2.662h-0.293l-1.215,0.738v0.407l0.615-0.341c-0.004,0.002,0.01,0,0.023-0.002
		c0,0.004,0,1.867,0,1.867c0,0.258,0,0.258-0.289,0.349l-0.334,0.102v0.306l0.219-0.01l0.725-0.016l1.197,0.021l0.006-0.303
		l-0.424-0.124C137.383,88.195,137.369,88.189,137.369,87.926z"/>
	<path fill="#00234B" d="M134.126,85.305c-0.812,0-1.297,0.412-1.297,1.103c0,0.603,0.407,0.991,1.038,0.991
		c0.261,0,0.482-0.076,0.688-0.195c-0.055,0.64-0.473,1.087-1.082,1.087c-0.143,0-0.27-0.026-0.42-0.084l-0.102-0.04l-0.12,0.34
		l0.092,0.037c0.259,0.113,0.513,0.165,0.808,0.165c1.058,0,1.767-0.804,1.767-1.997C135.498,85.807,135.011,85.305,134.126,85.305z
		 M134.578,86.784c-0.154,0.081-0.26,0.114-0.387,0.114c-0.231,0-0.446-0.076-0.446-0.637c0-0.257,0.065-0.562,0.377-0.562
		c0.302,0,0.456,0.335,0.456,0.993C134.578,86.693,134.578,86.738,134.578,86.784z"/>
	<path fill="#00234B" d="M139.863,86.65c-0.262,0-0.491,0.074-0.697,0.188c0.073-0.697,0.457-1.12,1.083-1.12
		c0.142,0,0.271,0.021,0.416,0.071l0.095,0.031l0.133-0.33l-0.101-0.037c-0.255-0.102-0.515-0.148-0.815-0.148
		c-1.067,0-1.754,0.791-1.754,2.01c0,0.938,0.465,1.412,1.385,1.412c0.791,0,1.283-0.416,1.283-1.088
		C140.893,87.059,140.467,86.65,139.863,86.65z M139.604,88.35c-0.229,0-0.465-0.119-0.465-1.004c0,0,0-0.043,0-0.087
		c0.129-0.073,0.244-0.11,0.381-0.11c0.193,0,0.451,0.064,0.451,0.605C139.971,88.146,139.848,88.35,139.604,88.35z"/>
	<path fill="#FFFFFF" d="M135.682,50.428c-11.646,0-21.121,9.475-21.121,21.12s9.475,21.117,21.121,21.117
		c11.643,0,21.119-9.472,21.119-21.117C156.8,59.9,147.323,50.428,135.682,50.428z M135.693,91.697
		c-11.065,0-20.071-9.006-20.071-20.072c0-11.068,9.006-20.07,20.071-20.07s20.07,9.002,20.07,20.07
		C155.764,82.691,146.759,91.697,135.693,91.697z"/>
	<path fill="#FFFFFF" d="M135.693,42.923c-15.756,0-28.576,12.819-28.576,28.575c0,15.758,12.82,28.579,28.576,28.579
		c15.757,0,28.576-12.821,28.576-28.579C164.27,55.742,151.45,42.923,135.693,42.923z M135.68,99.023
		c-15.15,0-27.476-12.325-27.476-27.477c0-15.15,12.325-27.477,27.476-27.477c15.152,0,27.475,12.326,27.475,27.478
		C163.154,86.698,150.832,99.023,135.68,99.023z"/>
	<path fill="#FFFFFF" d="M122.807,90.249c-0.767-0.513-1.711-0.31-2.185,0.396l-0.004,0.006c-0.474,0.707-0.31,1.646,0.457,2.158
		c0.766,0.517,1.708,0.312,2.183-0.395l0.006-0.007C123.736,91.703,123.57,90.764,122.807,90.249z M122.688,92.029l-0.006,0.009
		c-0.285,0.426-0.822,0.565-1.262,0.272c-0.438-0.297-0.513-0.857-0.229-1.283l0.004-0.008c0.287-0.427,0.826-0.565,1.265-0.271
		C122.898,91.043,122.973,91.605,122.688,92.029z"/>
	<polygon fill="#FFFFFF" points="123.568,94.256 124.162,94.536 124.657,93.491 125.945,94.102 126.2,93.562 124.911,92.951 
		125.182,92.377 126.646,93.064 126.9,92.525 124.842,91.557 	"/>
	<path fill="#FFFFFF" d="M130.316,93.562l-1.899,2.662l0.656,0.144l0.409-0.597l1.235,0.274l0.122,0.712l0.672,0.148l-0.603-3.215
		L130.316,93.562z M129.836,95.255l0.598-0.858l0.18,1.033L129.836,95.255z"/>
	<polygon fill="#FFFFFF" points="134.256,95.416 133.542,94.113 132.833,94.073 132.671,97.059 133.314,97.092 133.419,95.157 
		134.184,96.462 134.199,96.463 135.107,95.234 135.003,97.186 135.654,97.218 135.816,94.234 135.107,94.198 	"/>
	<polygon fill="#FFFFFF" points="137.667,96.511 137.607,95.889 139.007,95.751 138.951,95.171 137.549,95.307 137.492,94.703 
		139.083,94.548 139.027,93.966 136.785,94.188 137.074,97.156 139.337,96.936 139.279,96.355 	"/>
	<path fill="#FFFFFF" d="M142.564,94.195l-0.002-0.01c-0.065-0.273-0.209-0.479-0.41-0.604c-0.237-0.146-0.549-0.18-0.918-0.089
		l-1.327,0.321l0.707,2.902l0.639-0.154l-0.228-0.928l0.494-0.119l0.01-0.004l0.849,0.776l0.747-0.181l-0.963-0.864
		C142.498,95.021,142.678,94.661,142.564,94.195z M141.537,94.914l-0.648,0.156l-0.201-0.834l0.633-0.152
		c0.312-0.075,0.537,0.02,0.604,0.293l0.001,0.01C141.984,94.628,141.848,94.838,141.537,94.914z"/>
	
		<rect x="142.585" y="93.846" transform="matrix(0.3463 0.9381 -0.9381 0.3463 182.5343 -73.6014)" fill="#FFFFFF" width="2.987" height="0.656"/>
	<path fill="#FFFFFF" d="M147.275,93.791c-0.459,0.229-0.969,0.01-1.2-0.445l-0.002-0.01c-0.233-0.457-0.099-0.994,0.352-1.222
		c0.265-0.134,0.532-0.128,0.833-0.046l0.155-0.618c-0.372-0.118-0.757-0.134-1.259,0.123c-0.818,0.413-1.074,1.323-0.691,2.079
		l0.004,0.011c0.389,0.765,1.279,1.073,2.062,0.676c0.513-0.262,0.726-0.599,0.853-1.03l-0.567-0.187
		C147.702,93.417,147.579,93.635,147.275,93.791z"/>
	<path fill="#FFFFFF" d="M148.725,90.055l0.713,3.19l0.543-0.392l-0.166-0.701l1.027-0.738l0.611,0.387l0.558-0.4l-2.794-1.697
		L148.725,90.055z M150.312,91.08l-0.646,0.464l-0.243-1.021L150.312,91.08z"/>
	<path fill="#FFFFFF" d="M117.029,86.078l-0.303-0.398c-0.408-0.537-1.02-0.75-1.574-0.326l-0.006,0.004
		c-0.486,0.371-0.563,0.973-0.131,1.543l0.744,0.975l2.387-1.816l-0.399-0.523L117.029,86.078z M115.835,86.988l-0.31-0.406
		c-0.201-0.264-0.198-0.521,0.037-0.701l0.006-0.004c0.205-0.156,0.479-0.122,0.679,0.141l0.317,0.416L115.835,86.988z"/>
	<path fill="#FFFFFF" d="M115.919,82.848l-0.841,0.463l-0.246-0.446l-0.004-0.009l0.533-1.025l-0.373-0.676l-0.586,1.16
		c-0.309-0.27-0.699-0.351-1.125-0.115l-0.008,0.003c-0.246,0.136-0.41,0.329-0.477,0.556c-0.078,0.27-0.031,0.578,0.155,0.911
		l0.659,1.203l2.629-1.442L115.919,82.848z M113.812,84.009l-0.316-0.575c-0.154-0.283-0.124-0.526,0.125-0.662l0.009-0.004
		c0.22-0.121,0.459-0.043,0.615,0.238l0.323,0.588L113.812,84.009z"/>
	<path fill="#FFFFFF" d="M113.253,80.954c0.806-0.282,1.236-1.136,0.931-2.009c-0.305-0.875-1.186-1.279-1.99-0.997l-0.01,0.001
		c-0.804,0.281-1.236,1.138-0.932,2.011c0.307,0.875,1.188,1.276,1.993,0.998L113.253,80.954z M113.011,80.309
		c-0.487,0.17-1.003-0.041-1.179-0.539c-0.178-0.504,0.104-1,0.589-1.172l0.009-0.002c0.484-0.17,1.004,0.039,1.178,0.543
		c0.177,0.5-0.104,0.997-0.588,1.168L113.011,80.309z"/>
	<polygon fill="#FFFFFF" points="113.288,75.848 112.146,76.052 111.895,74.643 111.305,74.747 111.555,76.154 110.927,76.27 
		110.643,74.671 110.05,74.773 110.451,77.023 113.404,76.498 	"/>
	<polygon fill="#FFFFFF" points="112.841,71.057 112.252,71.076 112.309,72.703 111.682,72.727 111.632,71.312 111.044,71.335 
		111.094,72.748 110.486,72.77 110.43,71.162 109.843,71.184 109.922,73.443 112.92,73.338 	"/>
	<path fill="#FFFFFF" d="M110.749,69.947h0.009c0.594,0.062,0.799-0.309,1.016-0.895c0.181-0.484,0.276-0.578,0.441-0.562
		l0.01,0.001c0.174,0.018,0.265,0.189,0.235,0.461c-0.036,0.34-0.206,0.607-0.455,0.854l0.425,0.438
		c0.355-0.327,0.562-0.769,0.608-1.218c0.065-0.646-0.218-1.131-0.812-1.194h-0.008c-0.521-0.054-0.771,0.265-0.994,0.854
		c-0.186,0.502-0.264,0.623-0.457,0.603h-0.01c-0.144-0.015-0.244-0.158-0.22-0.41s0.164-0.5,0.376-0.746l-0.46-0.391
		c-0.272,0.276-0.448,0.634-0.494,1.067C109.895,69.418,110.209,69.891,110.749,69.947z"/>
	<path fill="#FFFFFF" d="M111.18,66.598h0.008c0.578,0.143,0.834-0.197,1.125-0.748c0.246-0.455,0.354-0.535,0.516-0.494l0.01,0.002
		c0.169,0.041,0.234,0.226,0.17,0.488c-0.083,0.332-0.285,0.571-0.566,0.782l0.36,0.491c0.399-0.276,0.661-0.684,0.771-1.125
		c0.152-0.626-0.065-1.148-0.645-1.289l-0.007-0.003c-0.508-0.125-0.802,0.155-1.101,0.71c-0.252,0.473-0.346,0.582-0.536,0.537
		l-0.011-0.004c-0.14-0.034-0.222-0.189-0.16-0.438c0.059-0.244,0.229-0.473,0.473-0.688l-0.4-0.451
		c-0.312,0.238-0.531,0.566-0.637,0.994C110.404,65.958,110.65,66.467,111.18,66.598z"/>
	
		<rect x="111.329" y="62.823" transform="matrix(-0.9393 -0.3431 0.3431 -0.9393 197.1409 161.1832)" fill="#FFFFFF" width="2.997" height="0.661"/>
	<path fill="#FFFFFF" d="M113.348,61.718l0.008,0.003c0.754,0.396,1.676,0.122,2.102-0.699c0.426-0.82,0.116-1.74-0.641-2.135
		l-0.008-0.004c-0.757-0.393-1.675-0.119-2.102,0.7C112.281,60.404,112.591,61.323,113.348,61.718z M113.243,59.874
		c0.245-0.476,0.799-0.61,1.256-0.375l0.008,0.005c0.455,0.237,0.657,0.758,0.413,1.229c-0.245,0.472-0.799,0.608-1.255,0.373
		l-0.007-0.004C113.202,60.863,112.999,60.342,113.243,59.874z"/>
	<polygon fill="#FFFFFF" points="117.089,58.243 115.57,57.086 117.966,57.086 118.309,56.643 115.921,54.822 115.525,55.341 
		116.995,56.46 114.675,56.459 114.307,56.943 116.693,58.76 	"/>
	<path fill="#FFFFFF" d="M119.352,55.532l-0.262-0.677l0.924-0.871l0.661,0.302l0.503-0.474l-3.009-1.316l-0.442,0.416l1.135,3.083
		L119.352,55.532z M119.443,53.723l-0.58,0.545l-0.379-0.979L119.443,53.723z"/>
	<polygon fill="#FFFFFF" points="123.639,52.085 123.298,51.592 122.066,52.445 120.701,50.473 120.157,50.85 121.868,53.314 	"/>
	<path fill="#FFFFFF" d="M125.203,49.525c0.332,0.82,1.172,1.19,2.04,0.841c0.509-0.205,0.823-0.562,1.011-0.918l-0.486-1.209
		l-1.209,0.485l0.215,0.528l0.615-0.248l0.16,0.396c-0.111,0.177-0.285,0.312-0.511,0.398c-0.493,0.199-0.994-0.033-1.197-0.542
		l-0.003-0.007c-0.189-0.475,0.006-1.009,0.451-1.188c0.32-0.131,0.553-0.104,0.841-0.012l0.198-0.621
		c-0.391-0.129-0.747-0.143-1.247,0.062c-0.843,0.338-1.199,1.231-0.88,2.024L125.203,49.525z"/>
	<path fill="#FFFFFF" d="M128.953,48.104c0.179,0.834,0.973,1.371,1.876,1.179c0.905-0.193,1.418-1.019,1.239-1.853l-0.002-0.009
		c-0.178-0.834-0.971-1.369-1.877-1.177c-0.903,0.193-1.416,1.018-1.238,1.852L128.953,48.104z M130.309,46.842
		c0.521-0.111,0.977,0.229,1.086,0.733l0.002,0.008c0.106,0.503-0.166,0.989-0.685,1.101c-0.521,0.11-0.979-0.229-1.087-0.73
		l-0.002-0.01C129.518,47.441,129.789,46.951,130.309,46.842z"/>
	<polygon fill="#FFFFFF" points="135.512,48.698 135.479,48.1 133.984,48.182 133.852,45.785 133.193,45.82 133.359,48.816 	"/>
	<polygon fill="#FFFFFF" points="137.145,47.614 138.572,47.729 138.62,47.129 137.191,47.018 137.244,46.378 138.863,46.509 
		138.911,45.911 136.634,45.729 136.395,48.721 137.051,48.77 	"/>
	<polygon fill="#FFFFFF" points="141.934,48.979 140.343,48.622 140.482,48.009 141.861,48.318 141.991,47.745 140.609,47.436 
		140.746,46.841 142.312,47.193 142.441,46.623 140.234,46.124 139.574,49.05 141.803,49.553 	"/>
	<path fill="#FFFFFF" d="M143.702,49.186l0.474,0.188l0.008,0.002l0.252,1.127l0.719,0.28l-0.295-1.261
		c0.408,0.006,0.762-0.186,0.938-0.635l0.002-0.007c0.104-0.266,0.104-0.521,0.014-0.735c-0.115-0.252-0.351-0.461-0.707-0.602
		l-1.277-0.496l-1.09,2.793l0.613,0.241L143.702,49.186z M144.227,47.841l0.611,0.24c0.298,0.114,0.428,0.323,0.326,0.586
		l-0.004,0.009c-0.092,0.234-0.325,0.327-0.623,0.211l-0.624-0.242L144.227,47.841z"/>
	<path fill="#FFFFFF" d="M146.852,51.758c0.562,0.318,1.123,0.253,1.418-0.263l0.004-0.009c0.259-0.454,0.068-0.812-0.383-1.254
		c-0.385-0.369-0.465-0.491-0.367-0.662l0.006-0.008c0.07-0.127,0.246-0.16,0.464-0.035c0.22,0.125,0.394,0.352,0.53,0.643
		l0.543-0.261c-0.145-0.363-0.398-0.668-0.778-0.884c-0.532-0.305-1.09-0.207-1.36,0.267l-0.004,0.008
		c-0.292,0.519-0.038,0.854,0.409,1.288c0.373,0.36,0.42,0.486,0.337,0.631l-0.002,0.008c-0.089,0.151-0.283,0.164-0.518,0.031
		c-0.299-0.17-0.474-0.434-0.599-0.759l-0.571,0.212C146.137,51.168,146.457,51.533,146.852,51.758z"/>
	<path fill="#FFFFFF" d="M150.529,51.218l0.336-0.469l-0.563-0.403l-0.399,0.557l0.216,0.154c-0.123,0.211-0.33,0.248-0.589,0.101
		l-0.111,0.251C149.836,51.697,150.2,51.678,150.529,51.218z"/>
	<path fill="#FFFFFF" d="M152.148,54.907l0.873,0.922l-0.301,0.66l0.475,0.503l1.312-3.012l-0.417-0.439l-3.078,1.143l0.461,0.486
		L152.148,54.907z M153.715,54.299l-0.431,0.957l-0.55-0.58L153.715,54.299z"/>
	<path fill="#FFFFFF" d="M153.911,57.225c-0.056,0.479,0.075,0.946,0.335,1.318c0.371,0.532,0.904,0.713,1.395,0.372l0.006-0.005
		c0.43-0.301,0.412-0.705,0.193-1.295c-0.188-0.502-0.208-0.645-0.046-0.758l0.006-0.006c0.122-0.082,0.291-0.037,0.437,0.17
		c0.145,0.207,0.203,0.482,0.203,0.809l0.604-0.003c0.025-0.39-0.075-0.775-0.324-1.134c-0.351-0.5-0.896-0.655-1.342-0.342
		l-0.006,0.004c-0.49,0.338-0.404,0.754-0.188,1.34c0.185,0.484,0.172,0.617,0.034,0.714l-0.005,0.005
		c-0.146,0.1-0.328,0.027-0.48-0.191c-0.197-0.283-0.241-0.596-0.215-0.947L153.911,57.225z"/>
	<path fill="#FFFFFF" d="M156.87,60.473c0.112,0.504,0.083,0.635-0.065,0.711l-0.005,0.006c-0.157,0.078-0.327-0.018-0.45-0.26
		c-0.154-0.303-0.16-0.619-0.082-0.962l-0.594-0.135c-0.124,0.468-0.055,0.948,0.153,1.353c0.294,0.575,0.799,0.828,1.327,0.557
		l0.011-0.004c0.465-0.237,0.5-0.641,0.367-1.256c-0.118-0.523-0.121-0.666,0.055-0.758l0.009-0.004c0.131-0.064,0.293,0,0.41,0.227
		c0.114,0.224,0.135,0.508,0.092,0.826l0.598,0.08c0.078-0.381,0.031-0.774-0.168-1.164c-0.278-0.547-0.797-0.771-1.281-0.523
		l-0.01,0.004C156.703,59.439,156.734,59.861,156.87,60.473z"/>
	<path fill="#FFFFFF" d="M158.135,62.439c-0.811,0.265-1.262,1.108-0.978,1.988c0.288,0.883,1.161,1.305,1.972,1.039l0.008-0.001
		c0.811-0.266,1.26-1.108,0.975-1.987c-0.285-0.881-1.157-1.306-1.969-1.041L158.135,62.439z M158.363,63.093
		c0.49-0.159,1.004,0.06,1.166,0.566c0.166,0.502-0.125,0.995-0.613,1.153l-0.01,0.002c-0.489,0.16-1.002-0.06-1.168-0.564
		c-0.163-0.504,0.129-0.997,0.617-1.154L158.363,63.093z"/>
	<path fill="#FFFFFF" d="M159.359,66.54l-0.006,0.001c-0.854,0.127-1.433,0.875-1.304,1.747c0.085,0.571,0.339,0.882,0.712,1.142
		l0.357-0.479c-0.247-0.2-0.415-0.39-0.462-0.729c-0.077-0.507,0.296-0.921,0.804-0.998l0.01-0.002
		c0.508-0.074,0.978,0.227,1.051,0.727c0.043,0.296-0.049,0.548-0.225,0.808l0.541,0.345c0.23-0.314,0.369-0.677,0.284-1.238
		C160.986,66.949,160.202,66.415,159.359,66.54z"/>
	
		<rect x="158.31" y="70.402" transform="matrix(0.9996 -0.0293 0.0293 0.9996 -2.0053 4.7164)" fill="#FFFFFF" width="2.997" height="0.658"/>
	<path fill="#FFFFFF" d="M158.307,72.659l0.646,0.334l-0.117,1.264l-0.694,0.212l-0.064,0.686l3.126-1.002l0.057-0.606l-2.89-1.557
		L158.307,72.659z M159.51,73.283l0.932,0.484l-1.004,0.309L159.51,73.283z"/>
	<polygon fill="#FFFFFF" points="160.135,76.83 157.807,76.292 157.656,76.936 159.988,77.475 159.779,78.364 160.373,78.5 
		160.934,76.08 160.343,75.939 	"/>
	
		<rect x="156.954" y="79.174" transform="matrix(0.9434 0.3315 -0.3315 0.9434 35.3187 -48.0351)" fill="#FFFFFF" width="2.999" height="0.66"/>
	<path fill="#FFFFFF" d="M157.945,80.945l-0.006-0.002c-0.762-0.387-1.678-0.104-2.097,0.722c-0.416,0.826-0.097,1.743,0.666,2.129
		l0.007,0.003c0.762,0.385,1.676,0.102,2.094-0.725C159.025,82.247,158.708,81.331,157.945,80.945z M158.07,82.792
		c-0.239,0.474-0.793,0.618-1.25,0.385l-0.01-0.004c-0.459-0.231-0.668-0.75-0.429-1.225c0.241-0.476,0.793-0.618,1.253-0.384h0.008
		C158.102,81.801,158.311,82.316,158.07,82.792z"/>
	<polygon fill="#FFFFFF" points="154.246,84.461 155.773,85.6 153.377,85.626 153.041,86.076 155.448,87.869 155.839,87.344 
		154.357,86.243 156.676,86.219 157.041,85.729 154.633,83.938 	"/>
	<path fill="#FFFFFF" d="M140.837,72.854l0.972-0.285V71.35h-6.312v1.219l0.971,0.285c0.691,0.213,0.719,0.289,0.719,0.842v1.658
		c-0.35,0.068-1.006,0.076-1.434,0.013c-2.281-0.333-2.911-2.015-2.911-3.777c0-0.989,0.333-1.891,1.089-2.621
		c0.541-0.521,1.367-0.995,2.623-0.95c0.547,0.021,1.178,0.282,1.396,0.433c0.625,0.436,0.771,0.95,0.937,1.581h1.618l-0.007-2.482
		c0,0-1.631-1.117-4.449-1.117c-2.238,0-6.64,0.934-6.64,5.31c0,2.688,2.255,4.784,6.181,4.983c2.705,0.137,4.537-0.662,4.537-0.662
		l-0.002-2.364C140.121,73.143,140.148,73.064,140.837,72.854z"/>
	<path fill="#FFFFFF" d="M125.223,66.666c-0.471-0.053-1.832-0.066-1.832-0.066l-5.553,0.002v1.215l0.932,0.289
		c0.754,0.244,0.754,0.316,0.754,0.873l0.006,5.28c0,0.556,0,0.591-0.76,0.831l-0.929,0.266v1.222h6.341v-1.222l-0.929-0.266
		c-0.757-0.24-0.757-0.275-0.757-0.831l0.004-1.276c0.098,0,1.501,0,1.501,0c1.38-0.021,2.497-0.107,3.495-0.674
		c0.949-0.539,1.472-1.535,1.472-2.578C128.968,68.05,127.639,66.913,125.223,66.666z M125.458,71.068
		c-0.176,0.164-0.574,0.359-0.897,0.44c-0.884,0.224-2.02,0.138-2.061,0.138v-3.752c0.748,0,2.057-0.112,2.898,0.494
		c0.416,0.297,0.658,0.771,0.668,1.381C126.078,70.202,125.919,70.675,125.458,71.068z"/>
	<path fill="#FFFFFF" d="M153.504,75.114c-0.564-0.21-0.693-0.312-0.855-0.669l-3.939-7.84h-1.634l-4.408,7.992
		c-0.159,0.301-0.303,0.369-0.672,0.502l-1.002,0.305v1.168h4.889v-1.196l-1.086-0.28c-0.231-0.057-0.222-0.212-0.166-0.316
		c0,0,0.142-0.27,0.354-0.676h4.093c0.218,0.41,0.274,0.492,0.346,0.64c0.104,0.219-0.099,0.317-0.354,0.389l-0.979,0.271v1.171
		h6.277v-1.148C154.368,75.424,153.505,75.114,153.504,75.114z M145.484,73.15c0.64-1.221,1.539-2.959,1.603-3.086
		c0.062,0.147,0.886,1.845,1.488,3.086H145.484z"/>
	<polygon fill="#B4975A" points="308.143,85.785 307.102,85.785 307.102,85.253 309.764,85.253 309.764,85.785 308.723,85.785 
		308.723,88.531 308.143,88.531 	"/>
	<polygon fill="#B4975A" points="310.277,85.253 310.893,85.253 311.889,86.803 312.887,85.253 313.5,85.253 313.5,88.531 
		312.924,88.531 312.924,86.18 311.889,87.725 311.871,87.725 310.846,86.189 310.846,88.531 310.277,88.531 	"/>
</g>
</svg>
